<mxfile host="app.diagrams.net" agent="Mozilla/5.0 (Windows NT 10.0; Win64; x64) AppleWebKit/537.36 (KHTML, like Gecko) Chrome/140.0.0.0 Safari/537.36" version="27.1.6">
  <diagram name="Page-1" id="0tMiNDJz34mNKIenJuUV">
    <mxGraphModel dx="1535" dy="693" grid="0" gridSize="10" guides="1" tooltips="1" connect="1" arrows="1" fold="1" page="1" pageScale="1" pageWidth="2000" pageHeight="1200" math="0" shadow="0">
      <root>
        <mxCell id="0" />
        <mxCell id="1" parent="0" />
        <mxCell id="g58OPJkNher-49E38F7a-50" style="edgeStyle=orthogonalEdgeStyle;rounded=0;orthogonalLoop=1;jettySize=auto;html=1;exitX=0.75;exitY=0;exitDx=0;exitDy=0;entryX=0.5;entryY=1;entryDx=0;entryDy=0;" edge="1" parent="1" source="g58OPJkNher-49E38F7a-39" target="g58OPJkNher-49E38F7a-48">
          <mxGeometry relative="1" as="geometry" />
        </mxCell>
        <mxCell id="g58OPJkNher-49E38F7a-54" value="&lt;span style=&quot;font-size: 14px;&quot;&gt;&lt;b&gt;待备份数据&lt;/b&gt;&lt;/span&gt;" style="edgeLabel;html=1;align=center;verticalAlign=middle;resizable=0;points=[];" vertex="1" connectable="0" parent="g58OPJkNher-49E38F7a-50">
          <mxGeometry x="0.0702" y="-3" relative="1" as="geometry">
            <mxPoint as="offset" />
          </mxGeometry>
        </mxCell>
        <mxCell id="g58OPJkNher-49E38F7a-61" style="edgeStyle=orthogonalEdgeStyle;rounded=0;orthogonalLoop=1;jettySize=auto;html=1;exitX=1;exitY=0.5;exitDx=0;exitDy=0;entryX=0;entryY=0.5;entryDx=0;entryDy=0;" edge="1" parent="1" source="g58OPJkNher-49E38F7a-39" target="g58OPJkNher-49E38F7a-58">
          <mxGeometry relative="1" as="geometry" />
        </mxCell>
        <mxCell id="g58OPJkNher-49E38F7a-62" value="&lt;font style=&quot;font-size: 14px;&quot;&gt;&lt;b&gt;历史数据&lt;/b&gt;&lt;/font&gt;" style="edgeLabel;html=1;align=center;verticalAlign=middle;resizable=0;points=[];" vertex="1" connectable="0" parent="g58OPJkNher-49E38F7a-61">
          <mxGeometry x="-0.2148" y="3" relative="1" as="geometry">
            <mxPoint x="9" y="3" as="offset" />
          </mxGeometry>
        </mxCell>
        <mxCell id="g58OPJkNher-49E38F7a-39" value="4.1.1" style="swimlane;html=1;startSize=20;fontStyle=1;collapsible=0;horizontal=1;swimlaneLine=1;strokeWidth=2;swimlaneFillColor=#ffffff;whiteSpace=wrap;rounded=1;fontSize=15;" vertex="1" parent="1">
          <mxGeometry x="762" y="284" width="158" height="64" as="geometry" />
        </mxCell>
        <mxCell id="g58OPJkNher-49E38F7a-40" value="存储数据" style="text;html=1;align=center;verticalAlign=middle;whiteSpace=wrap;rounded=0;fontSize=15;fontStyle=1" vertex="1" parent="g58OPJkNher-49E38F7a-39">
          <mxGeometry x="23.5" y="26" width="111" height="30" as="geometry" />
        </mxCell>
        <mxCell id="g58OPJkNher-49E38F7a-45" style="edgeStyle=orthogonalEdgeStyle;rounded=0;orthogonalLoop=1;jettySize=auto;html=1;exitX=1;exitY=0.5;exitDx=0;exitDy=0;entryX=0.5;entryY=1;entryDx=0;entryDy=0;" edge="1" parent="1" source="g58OPJkNher-49E38F7a-41" target="g58OPJkNher-49E38F7a-39">
          <mxGeometry relative="1" as="geometry" />
        </mxCell>
        <mxCell id="g58OPJkNher-49E38F7a-53" value="&lt;b&gt;&lt;font style=&quot;font-size: 14px;&quot;&gt;应急事件数据&lt;/font&gt;&lt;/b&gt;" style="edgeLabel;html=1;align=center;verticalAlign=middle;resizable=0;points=[];" vertex="1" connectable="0" parent="g58OPJkNher-49E38F7a-45">
          <mxGeometry x="-0.4724" y="3" relative="1" as="geometry">
            <mxPoint x="9" y="1" as="offset" />
          </mxGeometry>
        </mxCell>
        <mxCell id="g58OPJkNher-49E38F7a-41" value="&lt;font style=&quot;font-size: 16px;&quot;&gt;&lt;b&gt;&amp;nbsp; &amp;nbsp; &amp;nbsp; &amp;nbsp; &amp;nbsp;应急事件记录&lt;/b&gt;&lt;/font&gt;" style="html=1;dashed=0;whiteSpace=wrap;shape=mxgraph.dfd.dataStoreID;align=left;spacingLeft=3;points=[[0,0],[0.5,0],[1,0],[0,0.5],[1,0.5],[0,1],[0.5,1],[1,1]];" vertex="1" parent="1">
          <mxGeometry x="532" y="384" width="145" height="38" as="geometry" />
        </mxCell>
        <mxCell id="g58OPJkNher-49E38F7a-46" style="edgeStyle=orthogonalEdgeStyle;rounded=0;orthogonalLoop=1;jettySize=auto;html=1;exitX=1;exitY=0.5;exitDx=0;exitDy=0;entryX=0;entryY=0.5;entryDx=0;entryDy=0;" edge="1" parent="1" source="g58OPJkNher-49E38F7a-42" target="g58OPJkNher-49E38F7a-39">
          <mxGeometry relative="1" as="geometry" />
        </mxCell>
        <mxCell id="g58OPJkNher-49E38F7a-52" value="&lt;b&gt;&lt;font style=&quot;font-size: 14px;&quot;&gt;巡查数据&lt;/font&gt;&lt;/b&gt;" style="edgeLabel;html=1;align=center;verticalAlign=middle;resizable=0;points=[];" vertex="1" connectable="0" parent="g58OPJkNher-49E38F7a-46">
          <mxGeometry x="-0.1917" y="-1" relative="1" as="geometry">
            <mxPoint x="6" y="-1" as="offset" />
          </mxGeometry>
        </mxCell>
        <mxCell id="g58OPJkNher-49E38F7a-42" value="&lt;font style=&quot;font-size: 16px;&quot;&gt;&lt;b&gt;&amp;nbsp; &amp;nbsp; &amp;nbsp; &amp;nbsp; &amp;nbsp;巡查记录&lt;/b&gt;&lt;/font&gt;" style="html=1;dashed=0;whiteSpace=wrap;shape=mxgraph.dfd.dataStoreID;align=left;spacingLeft=3;points=[[0,0],[0.5,0],[1,0],[0,0.5],[1,0.5],[0,1],[0.5,1],[1,1]];" vertex="1" parent="1">
          <mxGeometry x="545" y="297" width="126" height="38" as="geometry" />
        </mxCell>
        <mxCell id="g58OPJkNher-49E38F7a-47" style="edgeStyle=orthogonalEdgeStyle;rounded=0;orthogonalLoop=1;jettySize=auto;html=1;exitX=1;exitY=0.5;exitDx=0;exitDy=0;" edge="1" parent="1" source="g58OPJkNher-49E38F7a-43" target="g58OPJkNher-49E38F7a-39">
          <mxGeometry relative="1" as="geometry" />
        </mxCell>
        <mxCell id="g58OPJkNher-49E38F7a-51" value="&lt;b&gt;&lt;font style=&quot;font-size: 14px;&quot;&gt;异常数据&lt;/font&gt;&lt;/b&gt;" style="edgeLabel;html=1;align=center;verticalAlign=middle;resizable=0;points=[];" vertex="1" connectable="0" parent="g58OPJkNher-49E38F7a-47">
          <mxGeometry x="-0.4243" y="3" relative="1" as="geometry">
            <mxPoint as="offset" />
          </mxGeometry>
        </mxCell>
        <mxCell id="g58OPJkNher-49E38F7a-43" value="&lt;font style=&quot;font-size: 16px;&quot;&gt;&lt;b&gt;&amp;nbsp; &amp;nbsp; &amp;nbsp; &amp;nbsp; &amp;nbsp;异常记录&lt;/b&gt;&lt;/font&gt;" style="html=1;dashed=0;whiteSpace=wrap;shape=mxgraph.dfd.dataStoreID;align=left;spacingLeft=3;points=[[0,0],[0.5,0],[1,0],[0,0.5],[1,0.5],[0,1],[0.5,1],[1,1]];" vertex="1" parent="1">
          <mxGeometry x="545" y="203" width="126" height="38" as="geometry" />
        </mxCell>
        <mxCell id="g58OPJkNher-49E38F7a-48" value="4.1.2" style="swimlane;html=1;startSize=20;fontStyle=1;collapsible=0;horizontal=1;swimlaneLine=1;strokeWidth=2;swimlaneFillColor=#ffffff;whiteSpace=wrap;rounded=1;fontSize=15;" vertex="1" parent="1">
          <mxGeometry x="802" y="104" width="158" height="64" as="geometry" />
        </mxCell>
        <mxCell id="g58OPJkNher-49E38F7a-49" value="备份数据" style="text;html=1;align=center;verticalAlign=middle;whiteSpace=wrap;rounded=0;fontSize=15;fontStyle=1" vertex="1" parent="g58OPJkNher-49E38F7a-48">
          <mxGeometry x="21" y="25" width="116" height="30" as="geometry" />
        </mxCell>
        <mxCell id="g58OPJkNher-49E38F7a-72" style="edgeStyle=orthogonalEdgeStyle;rounded=0;orthogonalLoop=1;jettySize=auto;html=1;exitX=0;exitY=0.5;exitDx=0;exitDy=0;entryX=1;entryY=0.5;entryDx=0;entryDy=0;" edge="1" parent="1" source="g58OPJkNher-49E38F7a-55" target="g58OPJkNher-49E38F7a-71">
          <mxGeometry relative="1" as="geometry" />
        </mxCell>
        <mxCell id="g58OPJkNher-49E38F7a-55" value="4.2.2" style="swimlane;html=1;startSize=20;fontStyle=1;collapsible=0;horizontal=1;swimlaneLine=1;strokeWidth=2;swimlaneFillColor=#ffffff;whiteSpace=wrap;rounded=1;fontSize=15;" vertex="1" parent="1">
          <mxGeometry x="772" y="526" width="158" height="64" as="geometry" />
        </mxCell>
        <mxCell id="g58OPJkNher-49E38F7a-56" value="训练决策模型" style="text;html=1;align=center;verticalAlign=middle;whiteSpace=wrap;rounded=0;fontSize=15;fontStyle=1" vertex="1" parent="g58OPJkNher-49E38F7a-55">
          <mxGeometry x="21" y="25" width="116" height="30" as="geometry" />
        </mxCell>
        <mxCell id="g58OPJkNher-49E38F7a-64" style="edgeStyle=orthogonalEdgeStyle;rounded=0;orthogonalLoop=1;jettySize=auto;html=1;exitX=0.5;exitY=1;exitDx=0;exitDy=0;entryX=0.5;entryY=0;entryDx=0;entryDy=0;" edge="1" parent="1" source="g58OPJkNher-49E38F7a-58" target="g58OPJkNher-49E38F7a-63">
          <mxGeometry relative="1" as="geometry" />
        </mxCell>
        <mxCell id="g58OPJkNher-49E38F7a-66" value="&lt;b style=&quot;font-size: 14px;&quot;&gt;分析结果&lt;/b&gt;" style="edgeLabel;html=1;align=center;verticalAlign=middle;resizable=0;points=[];" vertex="1" connectable="0" parent="g58OPJkNher-49E38F7a-64">
          <mxGeometry x="0.0023" relative="1" as="geometry">
            <mxPoint as="offset" />
          </mxGeometry>
        </mxCell>
        <mxCell id="g58OPJkNher-49E38F7a-89" style="edgeStyle=orthogonalEdgeStyle;rounded=0;orthogonalLoop=1;jettySize=auto;html=1;exitX=0.5;exitY=0;exitDx=0;exitDy=0;entryX=0.5;entryY=1;entryDx=0;entryDy=0;" edge="1" parent="1" source="g58OPJkNher-49E38F7a-58" target="g58OPJkNher-49E38F7a-90">
          <mxGeometry relative="1" as="geometry">
            <mxPoint x="1128.1428571428569" y="182.37336222330725" as="targetPoint" />
          </mxGeometry>
        </mxCell>
        <mxCell id="g58OPJkNher-49E38F7a-91" value="&lt;b style=&quot;font-size: 14px;&quot;&gt;分析结果&lt;/b&gt;" style="edgeLabel;html=1;align=center;verticalAlign=middle;resizable=0;points=[];" vertex="1" connectable="0" parent="g58OPJkNher-49E38F7a-89">
          <mxGeometry x="0.1073" y="-2" relative="1" as="geometry">
            <mxPoint as="offset" />
          </mxGeometry>
        </mxCell>
        <mxCell id="g58OPJkNher-49E38F7a-58" value="4.2.1" style="swimlane;html=1;startSize=20;fontStyle=1;collapsible=0;horizontal=1;swimlaneLine=1;strokeWidth=2;swimlaneFillColor=#ffffff;whiteSpace=wrap;rounded=1;fontSize=15;" vertex="1" parent="1">
          <mxGeometry x="1049" y="284" width="158" height="64" as="geometry" />
        </mxCell>
        <mxCell id="g58OPJkNher-49E38F7a-59" value="分析历史数据" style="text;html=1;align=center;verticalAlign=middle;whiteSpace=wrap;rounded=0;fontSize=15;fontStyle=1" vertex="1" parent="g58OPJkNher-49E38F7a-58">
          <mxGeometry x="21" y="25" width="116" height="30" as="geometry" />
        </mxCell>
        <mxCell id="g58OPJkNher-49E38F7a-67" style="edgeStyle=orthogonalEdgeStyle;rounded=0;orthogonalLoop=1;jettySize=auto;html=1;exitX=0;exitY=0.5;exitDx=0;exitDy=0;entryX=1;entryY=0.5;entryDx=0;entryDy=0;" edge="1" parent="1" source="g58OPJkNher-49E38F7a-63" target="g58OPJkNher-49E38F7a-55">
          <mxGeometry relative="1" as="geometry" />
        </mxCell>
        <mxCell id="g58OPJkNher-49E38F7a-68" value="&lt;span style=&quot;font-size: 14px;&quot;&gt;&lt;b&gt;训练样本&lt;/b&gt;&lt;/span&gt;" style="edgeLabel;html=1;align=center;verticalAlign=middle;resizable=0;points=[];" vertex="1" connectable="0" parent="g58OPJkNher-49E38F7a-67">
          <mxGeometry x="0.1022" y="1" relative="1" as="geometry">
            <mxPoint as="offset" />
          </mxGeometry>
        </mxCell>
        <mxCell id="g58OPJkNher-49E38F7a-63" value="&lt;font style=&quot;font-size: 16px;&quot;&gt;&lt;b&gt;&amp;nbsp; &amp;nbsp; &amp;nbsp; &amp;nbsp; &amp;nbsp;样本数据库&lt;/b&gt;&lt;/font&gt;" style="html=1;dashed=0;whiteSpace=wrap;shape=mxgraph.dfd.dataStoreID;align=left;spacingLeft=3;points=[[0,0],[0.5,0],[1,0],[0,0.5],[1,0.5],[0,1],[0.5,1],[1,1]];" vertex="1" parent="1">
          <mxGeometry x="1061" y="539" width="134" height="38" as="geometry" />
        </mxCell>
        <mxCell id="g58OPJkNher-49E38F7a-84" style="edgeStyle=orthogonalEdgeStyle;rounded=0;orthogonalLoop=1;jettySize=auto;html=1;exitX=1;exitY=0.5;exitDx=0;exitDy=0;entryX=0;entryY=0.5;entryDx=0;entryDy=0;" edge="1" parent="1" source="g58OPJkNher-49E38F7a-69" target="g58OPJkNher-49E38F7a-88">
          <mxGeometry relative="1" as="geometry">
            <mxPoint x="1071.257283528646" y="713.8333333333335" as="targetPoint" />
          </mxGeometry>
        </mxCell>
        <mxCell id="g58OPJkNher-49E38F7a-85" value="&lt;b style=&quot;font-size: 14px;&quot;&gt;预测结果&lt;/b&gt;" style="edgeLabel;html=1;align=center;verticalAlign=middle;resizable=0;points=[];" vertex="1" connectable="0" parent="g58OPJkNher-49E38F7a-84">
          <mxGeometry x="-0.2182" y="-1" relative="1" as="geometry">
            <mxPoint as="offset" />
          </mxGeometry>
        </mxCell>
        <mxCell id="g58OPJkNher-49E38F7a-69" value="4.2.3" style="swimlane;html=1;startSize=20;fontStyle=1;collapsible=0;horizontal=1;swimlaneLine=1;strokeWidth=2;swimlaneFillColor=#ffffff;whiteSpace=wrap;rounded=1;fontSize=15;" vertex="1" parent="1">
          <mxGeometry x="772" y="682" width="158" height="64" as="geometry" />
        </mxCell>
        <mxCell id="g58OPJkNher-49E38F7a-70" value="生成未来趋势预测" style="text;html=1;align=center;verticalAlign=middle;whiteSpace=wrap;rounded=0;fontSize=15;fontStyle=1" vertex="1" parent="g58OPJkNher-49E38F7a-69">
          <mxGeometry x="15.5" y="26" width="127" height="30" as="geometry" />
        </mxCell>
        <mxCell id="g58OPJkNher-49E38F7a-76" style="edgeStyle=orthogonalEdgeStyle;rounded=0;orthogonalLoop=1;jettySize=auto;html=1;exitX=0;exitY=0.5;exitDx=0;exitDy=0;entryX=1;entryY=0.5;entryDx=0;entryDy=0;" edge="1" parent="1" source="g58OPJkNher-49E38F7a-71" target="g58OPJkNher-49E38F7a-73">
          <mxGeometry relative="1" as="geometry" />
        </mxCell>
        <mxCell id="g58OPJkNher-49E38F7a-82" value="&lt;b style=&quot;font-size: 14px;&quot;&gt;巡查管理支持数据&lt;/b&gt;" style="edgeLabel;html=1;align=center;verticalAlign=middle;resizable=0;points=[];" vertex="1" connectable="0" parent="g58OPJkNher-49E38F7a-76">
          <mxGeometry x="0.1546" relative="1" as="geometry">
            <mxPoint x="15" as="offset" />
          </mxGeometry>
        </mxCell>
        <mxCell id="g58OPJkNher-49E38F7a-77" style="edgeStyle=orthogonalEdgeStyle;rounded=0;orthogonalLoop=1;jettySize=auto;html=1;exitX=0.5;exitY=0;exitDx=0;exitDy=0;entryX=1;entryY=0.5;entryDx=0;entryDy=0;" edge="1" parent="1" source="g58OPJkNher-49E38F7a-71" target="g58OPJkNher-49E38F7a-75">
          <mxGeometry relative="1" as="geometry" />
        </mxCell>
        <mxCell id="g58OPJkNher-49E38F7a-83" value="&lt;b style=&quot;font-size: 14px;&quot;&gt;风险评估支持数据&lt;/b&gt;" style="edgeLabel;html=1;align=center;verticalAlign=middle;resizable=0;points=[];" vertex="1" connectable="0" parent="g58OPJkNher-49E38F7a-77">
          <mxGeometry x="0.5031" relative="1" as="geometry">
            <mxPoint x="25" as="offset" />
          </mxGeometry>
        </mxCell>
        <mxCell id="g58OPJkNher-49E38F7a-78" style="edgeStyle=orthogonalEdgeStyle;rounded=0;orthogonalLoop=1;jettySize=auto;html=1;exitX=0.5;exitY=1;exitDx=0;exitDy=0;entryX=1;entryY=0.5;entryDx=0;entryDy=0;" edge="1" parent="1" source="g58OPJkNher-49E38F7a-71" target="g58OPJkNher-49E38F7a-74">
          <mxGeometry relative="1" as="geometry" />
        </mxCell>
        <mxCell id="g58OPJkNher-49E38F7a-81" value="&lt;b style=&quot;font-size: 14px;&quot;&gt;应急响应支持数据&lt;/b&gt;" style="edgeLabel;html=1;align=center;verticalAlign=middle;resizable=0;points=[];" vertex="1" connectable="0" parent="g58OPJkNher-49E38F7a-78">
          <mxGeometry x="0.4568" relative="1" as="geometry">
            <mxPoint x="15" as="offset" />
          </mxGeometry>
        </mxCell>
        <mxCell id="g58OPJkNher-49E38F7a-79" style="edgeStyle=orthogonalEdgeStyle;rounded=0;orthogonalLoop=1;jettySize=auto;html=1;exitX=0.75;exitY=1;exitDx=0;exitDy=0;entryX=0;entryY=0.5;entryDx=0;entryDy=0;" edge="1" parent="1" source="g58OPJkNher-49E38F7a-71" target="g58OPJkNher-49E38F7a-69">
          <mxGeometry relative="1" as="geometry" />
        </mxCell>
        <mxCell id="g58OPJkNher-49E38F7a-80" value="&lt;span style=&quot;font-size: 14px;&quot;&gt;&lt;b&gt;预测支持数据&lt;/b&gt;&lt;/span&gt;" style="edgeLabel;html=1;align=center;verticalAlign=middle;resizable=0;points=[];" vertex="1" connectable="0" parent="g58OPJkNher-49E38F7a-79">
          <mxGeometry x="-0.0298" relative="1" as="geometry">
            <mxPoint as="offset" />
          </mxGeometry>
        </mxCell>
        <mxCell id="g58OPJkNher-49E38F7a-71" value="" style="whiteSpace=wrap;html=1;aspect=fixed;" vertex="1" parent="1">
          <mxGeometry x="659" y="538" width="40" height="40" as="geometry" />
        </mxCell>
        <mxCell id="g58OPJkNher-49E38F7a-73" value="&lt;b style=&quot;font-size: 16px;&quot;&gt;巡查管理模块&lt;/b&gt;" style="rounded=0;whiteSpace=wrap;html=1;" vertex="1" parent="1">
          <mxGeometry x="472" y="528" width="60" height="60" as="geometry" />
        </mxCell>
        <mxCell id="g58OPJkNher-49E38F7a-74" value="&lt;b style=&quot;font-size: 16px;&quot;&gt;应急响应模块&lt;/b&gt;" style="rounded=0;whiteSpace=wrap;html=1;" vertex="1" parent="1">
          <mxGeometry x="472" y="614" width="60" height="60" as="geometry" />
        </mxCell>
        <mxCell id="g58OPJkNher-49E38F7a-75" value="&lt;font style=&quot;font-size: 16px;&quot;&gt;&lt;b&gt;风险评估模块&lt;/b&gt;&lt;/font&gt;" style="rounded=0;whiteSpace=wrap;html=1;" vertex="1" parent="1">
          <mxGeometry x="472" y="449" width="60" height="60" as="geometry" />
        </mxCell>
        <mxCell id="g58OPJkNher-49E38F7a-88" value="&lt;font style=&quot;font-size: 16px;&quot;&gt;&lt;b&gt;&amp;nbsp; &amp;nbsp; &amp;nbsp; &amp;nbsp; &amp;nbsp;预测信息库&lt;/b&gt;&lt;/font&gt;" style="html=1;dashed=0;whiteSpace=wrap;shape=mxgraph.dfd.dataStoreID;align=left;spacingLeft=3;points=[[0,0],[0.5,0],[1,0],[0,0.5],[1,0.5],[0,1],[0.5,1],[1,1]];" vertex="1" parent="1">
          <mxGeometry x="1061" y="695" width="134" height="38" as="geometry" />
        </mxCell>
        <mxCell id="g58OPJkNher-49E38F7a-90" value="&lt;font style=&quot;font-size: 16px;&quot;&gt;&lt;b&gt;BJTU研究员&lt;/b&gt;&lt;/font&gt;" style="rounded=0;whiteSpace=wrap;html=1;" vertex="1" parent="1">
          <mxGeometry x="1098" y="125" width="60" height="60" as="geometry" />
        </mxCell>
      </root>
    </mxGraphModel>
  </diagram>
</mxfile>
